<svg width="131" height="24" viewBox="0 0 131 24" fill="none" xmlns="http://www.w3.org/2000/svg">
<path d="M5.408 23V10.2H0.64V6.52H5.408V5.24C5.408 3.72533 5.84533 2.50933 6.72 1.592C7.59467 0.653332 8.96 0.183998 10.816 0.183998H17.792V3.864H11.968C10.688 3.864 10.048 4.51467 10.048 5.816V6.52H16.896V10.2H10.048V23H5.408ZM27.0518 23.16C24.1931 23.16 21.9638 22.456 20.3638 21.048C18.7638 19.6187 17.9638 17.528 17.9638 14.776C17.9638 12.0027 18.7638 9.912 20.3638 8.504C21.9638 7.07467 24.1931 6.36 27.0518 6.36H35.0518C36.9291 6.36 38.3584 6.808 39.3398 7.704C40.3424 8.57867 40.8438 9.83733 40.8438 11.48C40.8438 14.8293 38.9131 16.504 35.0518 16.504H22.9558C23.4038 18.488 24.7691 19.48 27.0518 19.48H40.0118V23.16H27.0518ZM27.0518 10.04C24.8544 10.04 23.4998 10.968 22.9878 12.824H34.8278C35.2544 12.824 35.5851 12.696 35.8198 12.44C36.0758 12.184 36.2038 11.832 36.2038 11.384C36.2038 10.488 35.7451 10.04 34.8278 10.04H27.0518Z" fill="white"/>
<path d="M44.2088 23V0.119999H49.3928L65.5848 16.568V0.119999H70.7048V23H65.5208L49.3288 6.52V23H44.2088ZM75.1775 23V0.119999H99.6255V4.28H80.2975V10.616H97.1295V14.776H80.2975V23H75.1775ZM102.346 11.704V0.119999H130.506V11.704H125.322V4.28H118.346V23H113.226V4.28H107.53V11.704H102.346Z" fill="url(#paint0_linear_0_150)"/>
<defs>
<linearGradient id="paint0_linear_0_150" x1="-1.12842" y1="-6.35319" x2="43.0261" y2="77.7287" gradientUnits="userSpaceOnUse">
<stop stop-color="#CAB0B3"/>
<stop offset="0.388761" stop-color="#C3181F"/>
<stop offset="0.998796" stop-color="#0B0E17"/>
<stop offset="1" stop-color="#09101D"/>
</linearGradient>
</defs>
</svg>
