<svg width="220" height="24" viewBox="0 0 220 24" fill="none" xmlns="http://www.w3.org/2000/svg">
<g opacity="0.8" clip-path="url(#clip0_59_3)">
<path d="M214.335 18.339H211.67V14.162C211.67 13.166 211.65 11.884 210.28 11.884C208.891 11.884 208.679 12.968 208.679 14.089V18.339H206.013V9.75H208.573V10.92H208.608C208.966 10.246 209.836 9.533 211.136 9.533C213.836 9.533 214.336 11.311 214.336 13.624V18.339H214.335ZM203.003 8.575C202.8 8.57526 202.598 8.53537 202.41 8.45761C202.222 8.37984 202.051 8.26574 201.907 8.12184C201.764 7.97793 201.65 7.80706 201.572 7.61901C201.494 7.43097 201.455 7.22944 201.455 7.026C201.455 6.71983 201.546 6.4206 201.716 6.16615C201.887 5.91169 202.129 5.71343 202.412 5.59645C202.694 5.47947 203.006 5.44902 203.306 5.50894C203.606 5.56886 203.882 5.71647 204.098 5.93311C204.315 6.14974 204.462 6.42566 204.521 6.72598C204.581 7.0263 204.55 7.33753 204.433 7.62032C204.315 7.9031 204.117 8.14474 203.862 8.31467C203.608 8.4846 203.308 8.5752 203.002 8.575H203.003ZM204.339 18.339H201.666V9.75H204.34V18.339H204.339ZM215.67 3H200.329C199.593 3 199 3.58 199 4.297V19.703C199 20.42 199.594 21 200.328 21H215.666C216.4 21 217 20.42 217 19.703V4.297C217 3.58 216.4 3 215.666 3H215.669H215.67Z" fill="#0F4CA5"/>
</g>
<g opacity="0.8">
<path fill-rule="evenodd" clip-rule="evenodd" d="M56.465 1.066C57.638 1.012 58.012 1 61 1C63.988 1 64.362 1.013 65.534 1.066C66.706 1.119 67.506 1.306 68.206 1.577C68.939 1.854 69.604 2.287 70.154 2.847C70.714 3.396 71.146 4.06 71.422 4.794C71.694 5.494 71.88 6.294 71.934 7.464C71.988 8.639 72 9.013 72 12C72 14.988 71.987 15.362 71.934 16.535C71.881 17.705 71.694 18.505 71.422 19.205C71.146 19.9391 70.7133 20.6042 70.154 21.154C69.604 21.714 68.939 22.146 68.206 22.422C67.506 22.694 66.706 22.88 65.536 22.934C64.362 22.988 63.988 23 61 23C58.012 23 57.638 22.987 56.465 22.934C55.295 22.881 54.495 22.694 53.795 22.422C53.0609 22.146 52.3958 21.7133 51.846 21.154C51.2864 20.6047 50.8533 19.9399 50.577 19.206C50.306 18.506 50.12 17.706 50.066 16.536C50.012 15.361 50 14.987 50 12C50 9.012 50.013 8.638 50.066 7.466C50.119 6.294 50.306 5.494 50.577 4.794C50.8537 4.06008 51.2871 3.39531 51.847 2.846C52.396 2.2865 53.0605 1.85344 53.794 1.577C54.494 1.306 55.294 1.12 56.464 1.066H56.465ZM65.445 3.046C64.285 2.993 63.937 2.982 61 2.982C58.063 2.982 57.715 2.993 56.555 3.046C55.482 3.095 54.9 3.274 54.512 3.425C53.999 3.625 53.632 3.862 53.247 4.247C52.882 4.60205 52.6012 5.03428 52.425 5.512C52.274 5.9 52.095 6.482 52.046 7.555C51.993 8.715 51.982 9.063 51.982 12C51.982 14.937 51.993 15.285 52.046 16.445C52.095 17.518 52.274 18.1 52.425 18.488C52.601 18.965 52.882 19.398 53.247 19.753C53.602 20.118 54.035 20.399 54.512 20.575C54.9 20.726 55.482 20.905 56.555 20.954C57.715 21.007 58.062 21.018 61 21.018C63.938 21.018 64.285 21.007 65.445 20.954C66.518 20.905 67.1 20.726 67.488 20.575C68.001 20.375 68.368 20.138 68.753 19.753C69.118 19.398 69.399 18.965 69.575 18.488C69.726 18.1 69.905 17.518 69.954 16.445C70.007 15.285 70.018 14.937 70.018 12C70.018 9.063 70.007 8.715 69.954 7.555C69.905 6.482 69.726 5.9 69.575 5.512C69.375 4.999 69.138 4.632 68.753 4.247C68.3979 3.88207 67.9657 3.60121 67.488 3.425C67.1 3.274 66.518 3.095 65.445 3.046V3.046ZM59.595 15.391C60.3797 15.7176 61.2534 15.7617 62.0669 15.5157C62.8805 15.2697 63.5834 14.7489 64.0556 14.0422C64.5278 13.3356 64.7401 12.4869 64.656 11.6411C64.572 10.7953 64.197 10.005 63.595 9.405C63.2112 9.02148 62.7472 8.72781 62.2363 8.54515C61.7255 8.36248 61.1804 8.29536 60.6405 8.34862C60.1006 8.40187 59.5792 8.57418 59.1138 8.85313C58.6485 9.13208 58.2507 9.51074 57.9493 9.96185C57.6479 10.413 57.4502 10.9253 57.3705 11.462C57.2908 11.9986 57.3312 12.5463 57.4885 13.0655C57.6459 13.5847 57.9165 14.0626 58.2807 14.4647C58.645 14.8668 59.0938 15.1832 59.595 15.391ZM57.002 8.002C57.527 7.47698 58.1503 7.0605 58.8363 6.77636C59.5223 6.49222 60.2575 6.34597 61 6.34597C61.7425 6.34597 62.4777 6.49222 63.1637 6.77636C63.8497 7.0605 64.473 7.47698 64.998 8.002C65.523 8.52702 65.9395 9.15032 66.2236 9.8363C66.5078 10.5223 66.654 11.2575 66.654 12C66.654 12.7425 66.5078 13.4777 66.2236 14.1637C65.9395 14.8497 65.523 15.473 64.998 15.998C63.9377 17.0583 62.4995 17.654 61 17.654C59.5005 17.654 58.0623 17.0583 57.002 15.998C55.9417 14.9377 55.346 13.4995 55.346 12C55.346 10.5005 55.9417 9.06234 57.002 8.002V8.002ZM67.908 7.188C68.0381 7.06527 68.1423 6.91768 68.2143 6.75397C68.2863 6.59027 68.3248 6.41377 68.3274 6.23493C68.33 6.05609 68.2967 5.87855 68.2295 5.71281C68.1622 5.54707 68.0624 5.39651 67.936 5.27004C67.8095 5.14357 67.6589 5.04376 67.4932 4.97652C67.3275 4.90928 67.1499 4.87598 66.9711 4.87858C66.7922 4.88119 66.6157 4.91965 66.452 4.9917C66.2883 5.06374 66.1407 5.1679 66.018 5.298C65.7793 5.55103 65.6486 5.88712 65.6537 6.23493C65.6588 6.58274 65.7992 6.91488 66.0452 7.16084C66.2911 7.40681 66.6233 7.54723 66.9711 7.5523C67.3189 7.55737 67.655 7.42669 67.908 7.188V7.188Z" fill="#0F4CA5"/>
</g>
<g opacity="0.8" clip-path="url(#clip1_59_3)">
<path d="M115.584 13.5002L116.251 9.15698H112.083V6.33848C112.083 5.15048 112.665 3.99173 114.532 3.99173H116.427V0.294227C116.427 0.294227 114.708 0.000976562 113.064 0.000976562C109.632 0.000976562 107.388 2.08148 107.388 5.84723V9.15773H103.573V13.501H107.388V24.001H112.083V13.501L115.584 13.5002Z" fill="#0F4CA5"/>
</g>
<g opacity="0.8">
<path d="M168.456 10.1543C168.579 10.8133 168.646 11.5023 168.646 12.2213C168.646 17.8453 164.882 21.8442 159.197 21.8442C157.904 21.8446 156.624 21.5903 155.429 21.0957C154.235 20.6012 153.15 19.8761 152.235 18.9619C151.321 18.0477 150.596 16.9624 150.102 15.7679C149.607 14.5733 149.353 13.2931 149.353 12.0003C149.353 10.7074 149.607 9.42716 150.102 8.23265C150.596 7.03814 151.321 5.95279 152.235 5.03861C153.15 4.12443 154.235 3.39935 155.429 2.90478C156.624 2.41021 157.904 2.15586 159.197 2.15625C161.855 2.15625 164.076 3.13425 165.78 4.72225L163.005 7.49725V7.49025C161.972 6.50625 160.661 6.00125 159.197 6.00125C155.949 6.00125 153.309 8.74525 153.309 11.9943C153.309 15.2423 155.949 17.9923 159.197 17.9923C162.144 17.9923 164.15 16.3073 164.562 13.9933H159.197V10.1543H168.457H168.456Z" fill="#0F4CA5"/>
</g>
<g opacity="0.8">
<path d="M23.643 4.93659C22.808 5.30659 21.911 5.55659 20.968 5.66959C21.941 5.08738 22.669 4.17105 23.016 3.09159C22.1019 3.63458 21.1014 4.01678 20.058 4.22159C19.3564 3.47245 18.4271 2.97591 17.4143 2.80906C16.4016 2.64221 15.3621 2.81438 14.4572 3.29884C13.5524 3.7833 12.8328 4.55295 12.4102 5.48829C11.9875 6.42363 11.8855 7.47234 12.12 8.47159C10.2677 8.37858 8.45564 7.89714 6.80144 7.05849C5.14723 6.21985 3.68785 5.04275 2.51801 3.60359C2.11801 4.29359 1.88801 5.09359 1.88801 5.94559C1.88757 6.71258 2.07644 7.46783 2.43789 8.14432C2.79934 8.82081 3.32217 9.39763 3.96001 9.82359C3.22029 9.80005 2.49688 9.60017 1.85001 9.24059V9.30059C1.84994 10.3763 2.22204 11.419 2.90319 12.2516C3.58434 13.0842 4.53258 13.6555 5.58701 13.8686C4.9008 14.0543 4.18135 14.0817 3.48301 13.9486C3.78051 14.8742 4.36001 15.6836 5.14038 16.2635C5.92075 16.8434 6.86293 17.1648 7.83501 17.1826C6.18485 18.478 4.1469 19.1807 2.04901 19.1776C1.67739 19.1777 1.30609 19.156 0.937012 19.1126C3.06649 20.4818 5.54535 21.2084 8.07701 21.2056C16.647 21.2056 21.332 14.1076 21.332 7.95159C21.332 7.75159 21.327 7.54959 21.318 7.34959C22.2293 6.69056 23.0159 5.87448 23.641 4.93959L23.643 4.93659V4.93659Z" fill="#0F4CA5"/>
</g>
<defs>
<clipPath id="clip0_59_3">
<rect width="24" height="24" fill="white" transform="translate(196)"/>
</clipPath>
<clipPath id="clip1_59_3">
<rect width="24" height="24" fill="white" transform="translate(98)"/>
</clipPath>
</defs>
</svg>
